HIERARCHY
ROOT Hips
{
    OFFSET 0.000000 0.000000 0.000000
    CHANNELS 6 Xposition Yposition Zposition Zrotation Xrotation Yrotation
    JOINT Spine
    {
        OFFSET -0.000000 14.517291 0.000000
        CHANNELS 3 Zrotation Xrotation Yrotation
        JOINT Spine1
        {
            OFFSET -0.000000 37.558300 0.000000
            CHANNELS 3 Zrotation Xrotation Yrotation
            JOINT Neck
            {
                OFFSET -0.000000 37.404057 3.400369
                CHANNELS 3 Zrotation Xrotation Yrotation
                JOINT Head
                {
                    OFFSET -0.000000 24.785618 -3.540803
                    CHANNELS 3 Zrotation Xrotation Yrotation
                    End Site
                    {
                        OFFSET -0.000000 35.408028 0.000000
                    }
                }
            }
            JOINT LeftShoulder
            {
                OFFSET 6.992933 33.973492 -0.192664
                CHANNELS 3 Zrotation Xrotation Yrotation
                JOINT LeftArm
                {
                    OFFSET 21.527611 0.000000 0.000000
                    CHANNELS 3 Zrotation Xrotation Yrotation
                    JOINT LeftForeArm
                    {
                        OFFSET 56.353916 0.000000 0.000000
                        CHANNELS 3 Zrotation Xrotation Yrotation
                        JOINT LeftHand
                        {
                            OFFSET 47.774071 0.000000 0.000000
                            CHANNELS 3 Zrotation Xrotation Yrotation
                            End Site
                            {
                                OFFSET 26.556021 0.000000 0.000000
                            }
                        }
                    }
                }
            }
            JOINT RightShoulder
            {
                OFFSET -7.065357 33.973492 -0.192664
                CHANNELS 3 Zrotation Xrotation Yrotation
                JOINT RightArm
                {
                    OFFSET -21.527611 0.000000 0.000000
                    CHANNELS 3 Zrotation Xrotation Yrotation
                    JOINT RightForeArm
                    {
                        OFFSET -56.353916 0.000000 0.000000
                        CHANNELS 3 Zrotation Xrotation Yrotation
                        JOINT RightHand
                        {
                            OFFSET -47.774071 0.000000 0.000000
                            CHANNELS 3 Zrotation Xrotation Yrotation
                            End Site
                            {
                                OFFSET -26.556021 0.000000 0.000000
                            }
                        }
                    }
                }
            }
        }
    }
    JOINT LeftUpLeg
    {
        OFFSET 17.704014 0.000000 0.000000
        CHANNELS 3 Zrotation Xrotation Yrotation
        JOINT LeftLeg
        {
            OFFSET -0.000000 -81.181816 0.000000
            CHANNELS 3 Zrotation Xrotation Yrotation
            JOINT LeftFoot
            {
                OFFSET -0.000000 -62.821102 0.000000
                CHANNELS 3 Zrotation Xrotation Yrotation
                JOINT LeftToeBase
                {
                    OFFSET -0.000000 -11.507608 26.556021
                    CHANNELS 3 Zrotation Xrotation Yrotation
                    End Site
                    {
                        OFFSET -0.000000 0.000000 7.081605
                    }
                }
            }
        }
    }
    JOINT RightUpLeg
    {
        OFFSET -17.704014 0.000000 0.000000
        CHANNELS 3 Zrotation Xrotation Yrotation
        JOINT RightLeg
        {
            OFFSET -0.000000 -81.181816 0.000000
            CHANNELS 3 Zrotation Xrotation Yrotation
            JOINT RightFoot
            {
                OFFSET -0.000000 -62.821102 0.000000
                CHANNELS 3 Zrotation Xrotation Yrotation
                JOINT RightToeBase
                {
                    OFFSET -0.000000 -11.507608 26.556021
                    CHANNELS 3 Zrotation Xrotation Yrotation
                    End Site
                    {
                        OFFSET -0.000000 0.000000 7.081605
                    }
                }
            }
        }
    }
}
MOTION
Frames:    12
Frame Time:    0.008333
-16.557182    151.838882    -29.510414    0.256050    4.805113    2.755928    -0.512799    2.173611    8.167171    -1.151880    0.782375    2.727570    -0.191897    3.106198    -7.389958    9.421351    -10.016298    -5.525746    -0.835726    5.540063    -7.121070    -43.087959    17.149118    -42.157059    -0.059733    -30.018873    -126.853012    -3.242695    -30.021832    -4.228552    -2.341942    11.730440    1.940941    37.642609    8.732539    61.262962    -26.061506    -28.345118    62.834335    12.966256    -9.634970    30.806046    2.532772    -36.819057    -17.562885    -15.753425    34.345249    -19.212009    -0.316811    -7.342216    39.615078    0.000000    0.000000    0.000000    -3.034287    12.091500    -22.155117    0.766992    19.311111    -5.026424    14.046120    -24.911940    2.351445    0.000000    0.000000    0.000000    
-16.759377    151.729111    -29.820210    0.247973    4.705034    2.926945    -0.535137    2.166925    8.182830    -1.121683    0.821446    2.732844    -0.205768    3.167832    -7.473948    9.470480    -9.997573    -5.602092    -0.805195    5.563581    -7.108767    -43.022453    17.130104    -42.262386    -0.030551    -30.073746    -126.826675    -3.264739    -30.023952    -4.296624    -2.333849    11.752924    1.925139    37.628559    8.762804    61.080303    -26.163187    -28.470755    62.826252    13.007199    -9.696766    30.843098    2.574942    -36.848267    -17.480381    -15.692616    34.291599    -19.317593    -0.502674    -7.269278    39.513134    0.000000    0.000000    0.000000    -2.951705    12.047987    -22.175879    0.794331    19.554695    -4.980025    13.927907    -25.335978    2.382102    0.000000    0.000000    0.000000    
-16.960114    151.620377    -30.112289    0.241977    4.592849    3.084384    -0.528103    2.184358    8.173166    -1.152442    0.847936    2.730143    -0.220970    3.211494    -7.525035    9.557057    -9.944817    -5.638164    -0.764345    5.526651    -7.054080    -42.957893    17.115286    -42.311062    -0.023460    -30.068459    -126.821106    -3.389339    -29.996967    -4.498131    -2.303192    11.769154    1.964143    37.737984    8.693252    60.863930    -26.141533    -28.442562    62.951504    12.968172    -9.654929    30.800283    2.619150    -36.879753    -17.284252    -15.588359    34.314610    -19.526217    -0.658398    -7.197702    39.432667    0.000000    0.000000    0.000000    -2.867590    12.025288    -22.205193    0.827447    19.784542    -4.889315    13.740807    -25.772882    2.326048    0.000000    0.000000    0.000000    
-17.146751    151.503418    -30.430088    0.260291    4.505934    3.234676    -0.562586    2.192865    8.205356    -1.130631    0.854979    2.740558    -0.322047    3.308951    -7.617419    9.718533    -9.923336    -5.687729    -0.796276    5.428835    -7.130768    -42.885849    17.091473    -42.240974    0.032117    -30.069374    -126.786766    -3.458265    -29.893299    -4.734718    -2.325026    11.837794    1.906426    37.640488    8.799014    60.760048    -26.372267    -28.659283    62.839725    13.057994    -9.761469    30.785475    2.627746    -36.957729    -17.232302    -15.521681    34.287216    -19.675364    -0.928578    -7.107063    39.376740    0.000000    0.000000    0.000000    -2.821248    11.965685    -22.248207    0.876541    20.023113    -4.803090    13.566226    -26.245996    2.274190    0.000000    0.000000    0.000000    
-17.344246    151.382645    -30.715843    0.273724    4.410868    3.396479    -0.537308    2.131496    8.184913    -1.222191    0.970096    2.735878    -0.322998    3.327536    -7.655200    9.806138    -9.842647    -5.713880    -0.744348    5.372076    -7.113248    -42.778111    17.071152    -42.282318    0.011254    -30.141323    -126.783157    -3.574767    -29.994228    -4.847511    -2.266797    11.809152    1.989388    37.784531    8.682227    60.491356    -26.239212    -28.604839    63.034100    13.063930    -9.723516    30.775681    2.653273    -36.990959    -17.166105    -15.497094    34.252010    -19.714390    -1.085236    -7.061470    39.253448    0.000000    0.000000    0.000000    -2.757416    11.936660    -22.299431    0.962457    20.243116    -4.771358    13.327246    -26.726276    2.178975    0.000000    0.000000    0.000000    
-17.543064    151.257248    -31.001425    0.267050    4.317096    3.567829    -0.536700    2.140779    8.171478    -1.259154    0.993561    2.731970    -0.309204    3.280283    -7.704064    9.837907    -9.673445    -5.773269    -0.687113    5.310545    -7.075263    -42.754089    17.027702    -42.338688    0.017993    -30.076204    -126.792290    -3.641425    -29.912766    -4.921790    -2.228939    11.818394    1.954630    37.810852    8.727704    60.341690    -26.276344    -28.680933    63.116722    13.083853    -9.766627    30.660685    2.680583    -37.045368    -17.074873    -15.437458    34.269707    -19.802755    -1.233642    -7.020552    39.127552    0.000000    0.000000    0.000000    -2.660679    11.912391    -22.382853    0.994504    20.516294    -4.639116    13.110331    -27.240517    2.045676    0.000000    0.000000    0.000000    
-17.726782    151.142532    -31.275589    0.281527    4.234658    3.726242    -0.592428    2.112607    8.189146    -1.200317    0.983181    2.736925    -0.360488    3.401437    -7.776279    9.900590    -9.627280    -5.832629    -0.729619    5.290149    -7.121804    -42.645676    17.022366    -42.355461    -0.016002    -30.160919    -126.805923    -3.719511    -30.051794    -4.989906    -2.244135    11.827712    1.965349    37.862534    8.748636    60.080898    -26.263927    -28.728977    63.218235    13.070595    -9.800939    30.648165    2.692141    -37.082497    -17.011574    -15.407897    34.204987    -19.833387    -1.392640    -6.938836    39.011314    0.000000    0.000000    0.000000    -2.633847    11.908268    -22.280331    1.212277    20.690718    -4.571697    12.767892    -27.729828    1.743876    0.000000    0.000000    0.000000    
-17.914192    151.022751    -31.550116    0.279372    4.143743    3.885524    -0.585722    2.136850    8.177710    -1.239778    0.962111    2.733232    -0.418472    3.402293    -7.827556    10.010563    -9.474615    -5.867488    -0.699526    5.311728    -7.034750    -42.539574    17.002695    -42.497578    -0.037099    -30.181948    -126.815453    -3.799030    -30.103556    -5.085780    -2.238381    11.868937    1.938892    37.991104    8.707104    59.916145    -26.190550    -28.658728    63.380207    12.986862    -9.749169    30.577164    2.704270    -37.162514    -16.998331    -15.382190    34.297424    -19.904062    -1.568498    -6.959506    38.937023    0.000000    0.000000    0.000000    -2.534368    11.928301    -22.356680    1.274881    20.792957    -4.408638    12.461185    -28.181419    1.517605    0.000000    0.000000    0.000000    
-18.095263    150.904404    -31.791473    0.261310    4.045739    4.054986    -0.581614    2.107640    8.186570    -1.243805    0.995258    2.736653    -0.414978    3.467808    -7.902716    10.046614    -9.412795    -5.943775    -0.680805    5.287781    -7.020533    -42.492126    16.973160    -42.571297    0.011896    -30.173971    -126.788071    -3.875906    -30.005518    -5.168568    -2.204185    11.843657    1.892923    37.967869    8.865644    59.696388    -26.319683    -28.840813    63.392166    13.139675    -9.819845    30.607594    2.732697    -37.206841    -17.001724    -15.378059    34.316135    -19.950230    -1.688963    -6.935727    38.859356    0.000000    0.000000    0.000000    -2.407493    11.982338    -22.397972    1.347724    20.859566    -4.373921    12.229361    -28.579210    1.358112    0.000000    0.000000    0.000000    
-18.278698    150.782639    -32.042805    0.238242    3.949924    4.203654    -0.578918    2.107899    8.182617    -1.207853    1.007357    2.735168    -0.539036    3.444943    -7.954449    10.156848    -9.249573    -5.972497    -0.711158    5.271353    -6.964846    -42.452156    16.897146    -42.624981    -0.079122    -30.103239    -126.858414    -3.952423    -30.086807    -5.249324    -2.254858    11.919423    1.824805    38.111992    8.822659    59.586952    -26.207001    -28.778746    63.601055    13.195332    -9.747973    30.549623    2.778838    -37.263687    -16.996796    -15.396050    34.348354    -19.929258    -1.798812    -6.902910    38.751621    0.000000    0.000000    0.000000    -2.260101    12.040028    -22.415462    1.345665    20.951700    -4.220220    12.040283    -29.022285    1.155105    0.000000    0.000000    0.000000    
-18.451839    150.661819    -32.282269    0.206336    3.852429    4.329230    -0.549559    2.103134    8.209178    -1.226206    0.993822    2.744229    -0.521643    3.532407    -8.010662    10.158650    -9.192987    -6.038074    -0.689448    5.234784    -7.022162    -42.440750    16.901136    -42.592506    -0.024140    -30.178759    -126.873413    -4.085791    -30.058971    -5.346961    -2.225675    11.940654    1.798835    38.116379    8.942430    59.377884    -26.297035    -28.892744    63.666283    13.213654    -9.796000    30.506258    2.839364    -37.321819    -16.993969    -15.424913    34.398663    -19.906849    -1.910939    -6.892123    38.677540    0.000000    0.000000    0.000000    -2.111902    12.059523    -22.358130    1.329657    21.056675    -4.038364    11.837801    -29.428133    0.899607    0.000000    0.000000    0.000000    
-18.621710    150.551422    -32.504700    0.183426    3.765182    4.477811    -0.534528    2.066301    8.205135    -1.256640    1.037731    2.743759    -0.424223    3.529335    -8.035773    10.060837    -9.107862    -6.104581    -0.643875    5.224226    -6.956614    -42.434528    16.892498    -42.702118    0.000696    -30.189781    -126.907928    -4.073982    -30.028524    -5.319431    -2.161039    11.966452    1.754324    38.161484    8.993011    59.184444    -26.332497    -28.938093    63.788605    13.281749    -9.762912    30.525368    2.861851    -37.383896    -17.000023    -15.419791    34.443447    -19.887716    -2.039332    -6.837301    38.570404    0.000000    0.000000    0.000000    -1.964591    12.073043    -22.243437    1.338395    21.154629    -3.912793    11.607868    -29.818762    0.590991    0.000000    0.000000    0.000000    
